<svg width="126" height="138" viewBox="0 0 126 138" fill="none" xmlns="http://www.w3.org/2000/svg">
<g id="deco-kirakira-w">
<path id="&#227;&#131;&#145;&#227;&#130;&#185; 43725" d="M26.3519 100.16C27.8064 105.172 33.0936 110.439 38.1057 111.894L41.4863 112.877C46.4983 114.311 46.4983 116.69 41.4863 118.124L38.1057 119.107C33.0936 120.561 27.8064 125.829 26.3519 130.841L25.3691 134.241C23.9344 139.253 21.556 139.253 20.1213 134.241L19.1385 130.841C17.7036 125.829 12.4164 120.561 7.40452 119.107L4.00415 118.124C-1.00789 116.69 -1.00789 114.311 4.00415 112.877L7.40452 111.894C12.4164 110.439 17.7036 105.172 19.1385 100.16L20.1213 96.7595C21.556 91.7473 23.9344 91.7473 25.3691 96.7595L26.3519 100.16Z" fill="white"/>
<path id="&#227;&#131;&#145;&#227;&#130;&#185; 43727" d="M86.9164 14.6245C89.8899 24.8631 100.681 35.6729 110.921 38.6262L117.872 40.6148C128.112 43.588 128.112 48.4318 117.872 51.3851L110.921 53.3739C100.681 56.3273 89.8899 67.137 86.9164 77.3754L84.9276 84.3064C81.9738 94.5646 77.1297 94.5646 74.1759 84.3064L72.1674 77.3754C69.2136 67.137 58.4027 56.3273 48.1631 53.3739L41.2316 51.3851C30.9918 48.4318 30.9918 43.588 41.2316 40.6148L48.1631 38.6262C58.4027 35.6729 69.2136 24.8631 72.1674 14.6245L74.1759 7.69381C77.1297 -2.5646 81.9738 -2.5646 84.9276 7.69381L86.9164 14.6245Z" fill="white"/>
</g>
</svg>
