<svg width="24" height="25" viewBox="0 0 24 25" fill="none" xmlns="http://www.w3.org/2000/svg">
<g id="bottom-deco-kira">
<path id="bottom-deco-1" d="M10.0788 3.97405C9.30309 6.75628 6.48801 9.69372 3.81679 10.4963L2.00343 11.0366C-0.667811 11.8445 -0.667811 13.1608 2.00343 13.9634L3.81679 14.5038C6.48801 15.3063 9.30309 18.2437 10.0788 21.0259L10.5976 22.9093C11.3682 25.6969 12.6318 25.6969 13.4024 22.9093L13.9264 21.0259C14.6969 18.2437 17.5171 15.3063 20.1883 14.5038L21.9966 13.9634C24.6678 13.1608 24.6678 11.8445 21.9966 11.0366L20.1883 10.4963C17.5171 9.69372 14.6969 6.75628 13.9264 3.97405L13.4024 2.09071C12.6318 -0.696903 11.3682 -0.696903 10.5976 2.09071L10.0788 3.97405Z" fill="white"/>
</g>
</svg>
