<svg width="58" height="58" viewBox="0 0 58 58" fill="none" xmlns="http://www.w3.org/2000/svg">
<g id="deco-kirakira">
<path id="&#227;&#131;&#145;&#227;&#130;&#185; 43727" d="M24.7303 9.37136C22.8765 15.7551 16.1489 22.4951 9.76507 24.3365L5.43145 25.5764C-0.952409 27.4302 -0.952409 30.4502 5.43145 32.2917L9.76507 33.5317C16.1489 35.3731 22.8765 42.113 24.7303 48.4967L25.9701 52.8182C27.8116 59.2142 30.8317 59.2142 32.6732 52.8182L33.9253 48.4967C35.7668 42.113 42.5067 35.3731 48.8905 33.5317L53.2118 32.2917C59.5957 30.4502 59.5957 27.4302 53.2118 25.5764L48.8905 24.3365C42.5067 22.4951 35.7668 15.7551 33.9253 9.37136L32.6732 5.05004C30.8317 -1.34611 27.8116 -1.34611 25.9701 5.05004L24.7303 9.37136Z" fill="#DFF1FD"/>
</g>
</svg>
