<svg width="44" height="44" viewBox="0 0 44 44" fill="none" xmlns="http://www.w3.org/2000/svg">
<g id="deco-nose">
<path id="&#227;&#131;&#145;&#227;&#130;&#185; 43823" d="M25.9324 41.7469C24.0582 41.7469 22.3437 40.5265 21.8352 38.6756C21.2283 36.4657 22.5719 34.1941 24.8358 33.6012C31.5826 31.8357 35.5995 25.0422 33.7907 18.457C32.9148 15.2673 30.8183 12.6012 27.8877 10.9505C24.9575 9.29969 21.5436 8.86144 18.2752 9.71686C11.5284 11.4824 7.51145 18.2759 9.32028 24.8607C9.92709 27.0707 8.58389 29.3428 6.31961 29.9352C4.05588 30.5271 1.72714 29.2165 1.1207 27.0065C-0.34317 21.6789 0.406891 16.114 3.23172 11.3369C6.05661 6.55954 10.6181 3.14204 16.0763 1.71371C21.5347 0.284552 27.2362 1.01694 32.131 3.77414C37.0256 6.53094 40.5269 10.9836 41.9904 16.3112C45.0116 27.3093 38.3022 38.6558 27.0342 41.6044C26.6662 41.7009 26.2962 41.7469 25.9324 41.7469Z" fill="#DFF1FD"/>
</g>
</svg>
