<svg width="126" height="138" viewBox="0 0 126 138" fill="none" xmlns="http://www.w3.org/2000/svg">
<g id="deco-kirakira">
<path id="&#227;&#131;&#145;&#227;&#130;&#185; 43725" d="M26.283 99.3467C27.7473 104.376 33.0702 109.662 38.1161 111.122L41.5195 112.108C46.5654 113.548 46.5654 115.935 41.5195 117.375L38.1161 118.361C33.0702 119.82 27.7473 125.107 26.283 130.136L25.2936 133.549C23.8492 138.578 21.4547 138.578 20.0103 133.549L19.0209 130.136C17.5764 125.107 12.2535 119.82 7.20773 118.361L3.78441 117.375C-1.26147 115.935 -1.26147 113.548 3.78441 112.108L7.20773 111.122C12.2535 109.662 17.5764 104.376 19.0209 99.3467L20.0103 95.9345C21.4547 90.9046 23.8492 90.9046 25.2936 95.9345L26.283 99.3467Z" fill="#DFF1FD"/>
<path id="&#227;&#131;&#145;&#227;&#130;&#185; 43727" d="M86.9313 14.6503C89.9192 24.9069 100.763 35.7357 111.053 38.6942L118.038 40.6863C128.327 43.6647 128.327 48.517 118.038 51.4756L111.053 53.4679C100.763 56.4264 89.9192 67.2552 86.9313 77.5116L84.9328 84.4547C81.9646 94.731 77.0969 94.731 74.1287 84.4547L72.1104 77.5116C69.1422 67.2552 58.2787 56.4264 47.9891 53.4679L41.0239 51.4756C30.7342 48.517 30.7342 43.6647 41.0239 40.6863L47.9891 38.6942C58.2787 35.7357 69.1422 24.9069 72.1104 14.6503L74.1287 7.70735C77.0969 -2.56912 81.9646 -2.56912 84.9328 7.70735L86.9313 14.6503Z" fill="#DFF1FD"/>
</g>
</svg>
