<svg width="100" height="90" viewBox="0 0 100 90" fill="none" xmlns="http://www.w3.org/2000/svg">
<g id="deco-nose">
<path id="deco-nose_2" d="M77.9945 89.0144C75.4345 89.0144 72.8765 88.0384 70.9235 86.0863C67.0175 82.1803 67.0175 75.8484 70.9235 71.9433C76.5605 66.3064 79.6645 58.8114 79.6645 50.8404C79.6645 42.8683 76.5605 35.3744 70.9235 29.7373C65.2865 24.1004 57.7925 20.9964 49.8205 20.9964C41.8485 20.9964 34.3545 24.1004 28.7175 29.7373C17.0815 41.3733 17.0815 60.3073 28.7175 71.9433C32.6235 75.8484 32.6225 82.1803 28.7175 86.0863C24.8135 89.9914 18.4815 89.9903 14.5755 86.0863C-4.85851 66.6513 -4.85851 35.0293 14.5755 15.5953C23.9895 6.18134 36.5075 0.996338 49.8205 0.996338C63.1345 0.996338 75.6515 6.18134 85.0655 15.5953C94.4795 25.0094 99.6645 37.5263 99.6645 50.8404C99.6645 64.1543 94.4795 76.6703 85.0655 86.0863C83.1125 88.0384 80.5535 89.0144 77.9945 89.0144Z" fill="#DFF1FD"/>
</g>
</svg>
