<svg width="18" height="18" viewBox="0 0 18 18" fill="none" xmlns="http://www.w3.org/2000/svg">
<g id="arrow">
<path id="&#227;&#131;&#145;&#227;&#130;&#185; 43826" d="M7.46953 14.3555C7.29077 14.3558 7.11754 14.2936 6.97989 14.1795C6.82343 14.0498 6.72502 13.8631 6.70636 13.6608C6.6877 13.4584 6.75033 13.2569 6.88044 13.1008L10.3079 9.00007L7.00285 4.89173C6.87449 4.73367 6.81444 4.53097 6.83598 4.32851C6.85751 4.12604 6.95887 3.94051 7.1176 3.813C7.27763 3.6722 7.48914 3.60454 7.70117 3.62632C7.9132 3.64811 8.10653 3.75736 8.23459 3.92776L11.9298 8.51809C12.1619 8.8004 12.1619 9.2074 11.9298 9.48971L8.10453 14.08C7.94886 14.2678 7.713 14.3701 7.46953 14.3555Z" fill="#1391E6"/>
</g>
</svg>
