<svg width="24" height="24" viewBox="0 0 24 24" fill="none" xmlns="http://www.w3.org/2000/svg">
<g id="home">
<path id="&#227;&#131;&#145;&#227;&#130;&#185; 43759" d="M20.4201 10.1799L12.7101 2.29995C12.5223 2.11064 12.2668 2.00415 12.0001 2.00415C11.7335 2.00415 11.4779 2.11064 11.2901 2.29995L3.58012 10.1899C3.20327 10.5698 2.99437 11.0849 3.00012 11.6199V19.9999C2.99851 21.0629 3.82872 21.9415 4.89011 21.9999H19.1101C20.1715 21.9415 21.0017 21.0629 21.0001 19.9999V11.6199C21.0009 11.0829 20.7929 10.5665 20.4201 10.1799V10.1799ZM10.0001 19.9999V13.9999H14.0001V19.9999H10.0001ZM19.0001 19.9999H16.0001V12.9999C16.0001 12.4477 15.5524 11.9999 15.0001 11.9999H9.00012C8.44783 11.9999 8.00012 12.4477 8.00012 12.9999V19.9999H5.00012V11.5799L12.0001 4.42995L19.0001 11.6199V19.9999Z" fill="white"/>
</g>
</svg>
