<svg width="24" height="24" viewBox="0 0 24 24" fill="none" xmlns="http://www.w3.org/2000/svg">
<g id="email">
<path id="&#227;&#131;&#145;&#227;&#130;&#185; 43760" d="M19 4H5C3.34315 4 2 5.34315 2 7V17C2 18.6569 3.34315 20 5 20H19C20.6569 20 22 18.6569 22 17V7C22 5.34315 20.6569 4 19 4V4ZM18.33 6L12 10.75L5.67 6H18.33ZM19 18H5C4.44772 18 4 17.5523 4 17V7.25L11.4 12.8C11.5731 12.9298 11.7836 13 12 13C12.2164 13 12.4269 12.9298 12.6 12.8L20 7.25V17C20 17.5523 19.5523 18 19 18Z" fill="white"/>
</g>
</svg>
