<svg width="14" height="14" viewBox="0 0 14 14" fill="none" xmlns="http://www.w3.org/2000/svg">
<path id="Icon awesome-pen-nib" d="M3.73514 3.79509C3.17755 3.95269 2.73412 4.37605 2.55089 4.92575L0 12.5781L0.401678 12.9798L4.50623 8.87526C4.42447 8.70409 4.37498 8.51487 4.37498 8.31253C4.37498 7.58765 4.96259 7.00003 5.68747 7.00003C6.41235 7.00003 6.99997 7.58765 6.99997 8.31253C6.99997 9.03741 6.41235 9.62502 5.68747 9.62502C5.48513 9.62502 5.29591 9.57553 5.12474 9.49377L1.02019 13.5983L1.42187 14L9.07425 11.4491C9.62395 11.2659 10.0473 10.8224 10.2049 10.2649L11.3749 6.12504L7.87496 2.62506L3.73514 3.79509ZM13.6155 2.02814L11.9719 0.38452C11.4592 -0.128173 10.6276 -0.128173 10.115 0.38452L8.56867 1.9308L12.0692 5.43133L13.6155 3.88505C14.1282 3.37236 14.1282 2.54111 13.6155 2.02814H13.6155Z" fill="#1391E6"/>
</svg>
