<svg width="16" height="16" viewBox="0 0 16 16" fill="none" xmlns="http://www.w3.org/2000/svg">
<path id="Icon awesome-arrow-circle-right" d="M8 0C12.4194 0 16 3.58064 16 8C16 12.4194 12.4194 16 8 16C3.58064 16 0 12.4194 0 8C0 3.58064 3.58064 0 8 0ZM7.06774 4.63226L9.50322 6.96774H3.6129C3.18387 6.96774 2.83871 7.3129 2.83871 7.74193V8.25806C2.83871 8.6871 3.18387 9.03226 3.6129 9.03226H9.50322L7.06774 11.3677C6.75484 11.6677 6.74839 12.1677 7.05484 12.4742L7.40968 12.8258C7.7129 13.129 8.20322 13.129 8.50322 12.8258L12.7839 8.54839C13.0871 8.24516 13.0871 7.75484 12.7839 7.45484L8.50322 3.17097C8.2 2.86774 7.70968 2.86774 7.40968 3.17097L7.05484 3.52258C6.74839 3.83226 6.75484 4.33226 7.06774 4.63226H7.06774Z" fill="white"/>
</svg>
