<svg width="24" height="24" viewBox="0 0 24 24" fill="none" xmlns="http://www.w3.org/2000/svg">
<g id="edit">
<path id="&#227;&#131;&#145;&#227;&#130;&#185; 43761" d="M19.4003 7.3401L16.6603 4.6001C15.92 3.90476 14.7761 3.87466 14.0003 4.5301L5.0003 13.5301C4.67707 13.8561 4.47581 14.2833 4.4303 14.7401L4.0003 18.9101C3.97303 19.2066 4.07934 19.4999 4.2903 19.7101C4.47902 19.8973 4.7345 20.0016 5.0003 20.0001H5.0903L9.2603 19.6201C9.7171 19.5746 10.1443 19.3733 10.4703 19.0501L19.4703 10.0501C20.1976 9.28177 20.1663 8.06987 19.4003 7.34011L19.4003 7.3401ZM9.0803 17.6201L6.0803 17.9001L6.3503 14.9001L12.0003 9.3201L14.7003 12.0201L9.0803 17.6201ZM16.0003 10.6801L13.3203 8.0001L15.2703 6.0001L18.0003 8.7301L16.0003 10.6801Z" fill="white"/>
</g>
</svg>
