<svg width="24" height="24" viewBox="0 0 24 24" fill="none" xmlns="http://www.w3.org/2000/svg">
<g id="file-text">
<path id="&#227;&#131;&#145;&#227;&#130;&#185; 43765" d="M15 16H9C8.44771 16 8 16.4477 8 17C8 17.5523 8.44772 18 9 18H15C15.5523 18 16 17.5523 16 17C16 16.4477 15.5523 16 15 16Z" fill="white"/>
<path id="&#227;&#131;&#145;&#227;&#130;&#185; 43766" d="M9 14H12C12.5523 14 13 13.5523 13 13C13 12.4477 12.5523 12 12 12H9C8.44771 12 8 12.4477 8 13C8 13.5523 8.44772 14 9 14Z" fill="white"/>
<path id="&#227;&#131;&#145;&#227;&#130;&#185; 43767" d="M19.74 8.32994L14.3 2.32994C14.1109 2.12046 13.8422 2.00061 13.56 1.99994L6.56 1.99994C5.16268 1.98327 4.01647 3.10262 4 4.49994L4 19.4999C4.01647 20.8973 5.16268 22.0166 6.56 21.9999H17.44C18.8373 22.0166 19.9835 20.8973 20 19.4999V8.99994C19.9994 8.7521 19.9067 8.51334 19.74 8.32994L19.74 8.32994ZM14 4.99994L16.74 7.99994H14.74C14.5285 7.98717 14.3309 7.88994 14.1918 7.7301C14.0526 7.57027 13.9835 7.36122 14 7.14994L14 4.99994ZM17.44 19.9999H6.56C6.41938 20.0081 6.28128 19.96 6.17621 19.8662C6.07114 19.7724 6.00774 19.6406 6 19.4999V4.49994C6.00774 4.35929 6.07114 4.22751 6.17621 4.1337C6.28128 4.03988 6.41938 3.99175 6.56 3.99994L12 3.99994V7.14994C11.9664 8.68334 13.1769 9.95633 14.71 9.99994H18V19.4999C17.9923 19.6406 17.9289 19.7724 17.8238 19.8662C17.7187 19.96 17.5806 20.0081 17.44 19.9999Z" fill="white"/>
</g>
</svg>
