<svg width="52" height="32" viewBox="0 0 52 32" fill="none" xmlns="http://www.w3.org/2000/svg">
<g id="icon">
<path id="mobile-alt" d="M47.7904 7.55811H38.1418C37.0003 7.55811 36.0742 8.4842 36.0742 9.62566V27.5444C36.0742 28.6859 37.0003 29.612 38.1418 29.612H47.7904C48.9318 29.612 49.8579 28.6859 49.8579 27.5444V9.62566C49.8579 8.4842 48.9318 7.55811 47.7904 7.55811ZM42.9661 28.2336C42.2037 28.2336 41.5877 27.6176 41.5877 26.8552C41.5877 26.0928 42.2037 25.4769 42.9661 25.4769C43.7285 25.4769 44.3444 26.0928 44.3444 26.8552C44.3444 27.6176 43.7285 28.2336 42.9661 28.2336ZM47.7904 23.5816C47.7904 23.8659 47.5578 24.0985 47.2735 24.0985H38.6587C38.3744 24.0985 38.1418 23.8659 38.1418 23.5816V10.1425C38.1418 9.85825 38.3744 9.62566 38.6587 9.62566H47.2735C47.5578 9.62566 47.7904 9.85825 47.7904 10.1425V23.5816Z" fill="white"/>
<path id="desktop" d="M30.5068 0.999512H3.68243C2.20151 0.999512 1 2.20102 1 3.68194V21.5648C1 23.0457 2.20151 24.2472 3.68243 24.2472H14.4122L13.518 26.9296H9.49437C8.75111 26.9296 8.15316 27.5276 8.15316 28.2709C8.15316 29.0141 8.75111 29.6121 9.49437 29.6121H24.6948C25.4381 29.6121 26.036 29.0141 26.036 28.2709C26.036 27.5276 25.4381 26.9296 24.6948 26.9296H20.6712L19.777 24.2472H30.5068C31.9877 24.2472 33.1892 23.0457 33.1892 21.5648V3.68194C33.1892 2.20102 31.9877 0.999512 30.5068 0.999512ZM29.6126 20.6706H4.57658V4.57608H29.6126V20.6706Z" fill="white"/>
</g>
</svg>
