<svg width="254" height="2" viewBox="0 0 254 2" fill="none" xmlns="http://www.w3.org/2000/svg">
<g id="border">
<g id="Group 1">
<circle id="Ellipse 1" cx="1" cy="1" r="0.5" fill="white"/>
</g>
<g id="Group 2">
<circle id="Ellipse 2" cx="5" cy="1" r="0.5" fill="white"/>
</g>
<g id="Group 3">
<circle id="Ellipse 3" cx="9" cy="1" r="0.5" fill="white"/>
</g>
<g id="Group 4">
<circle id="Ellipse 4" cx="13" cy="1" r="0.5" fill="white"/>
</g>
<g id="Group 5">
<circle id="Ellipse 5" cx="17" cy="1" r="0.5" fill="white"/>
</g>
<g id="Group 6">
<circle id="Ellipse 7" cx="21" cy="1" r="0.5" fill="white"/>
</g>
<g id="Group 7">
<circle id="Ellipse 6" cx="25" cy="1" r="0.5" fill="white"/>
</g>
<g id="Group 9">
<circle id="Ellipse 8" cx="29" cy="1" r="0.5" fill="white"/>
</g>
<g id="Group 8">
<circle id="Ellipse 9" cx="33" cy="1" r="0.5" fill="white"/>
</g>
<g id="Group 10">
<circle id="Ellipse 13" cx="37" cy="1" r="0.5" fill="white"/>
</g>
<g id="Group 12">
<circle id="Ellipse 11" cx="41" cy="1" r="0.5" fill="white"/>
</g>
<g id="Group 11">
<circle id="Ellipse 15" cx="45" cy="1" r="0.5" fill="white"/>
</g>
<g id="Group 13">
<circle id="Ellipse 10" cx="49" cy="1" r="0.5" fill="white"/>
</g>
<g id="Group 14">
<circle id="Ellipse 14" cx="53" cy="1" r="0.5" fill="white"/>
</g>
<g id="Group 15">
<circle id="Ellipse 12" cx="57" cy="1" r="0.5" fill="white"/>
</g>
<g id="Group 16">
<circle id="Ellipse 16" cx="61" cy="1" r="0.5" fill="white"/>
</g>
<g id="Group 18">
<circle id="Ellipse 17" cx="65" cy="1" r="0.5" fill="white"/>
</g>
<g id="Group 17">
<circle id="Ellipse 25" cx="69" cy="1" r="0.5" fill="white"/>
</g>
<g id="Group 19">
<circle id="Ellipse 21" cx="73" cy="1" r="0.5" fill="white"/>
</g>
<g id="Group 21">
<circle id="Ellipse 29" cx="77" cy="1" r="0.5" fill="white"/>
</g>
<g id="Group 22">
<circle id="Ellipse 19" cx="81" cy="1" r="0.5" fill="white"/>
</g>
<g id="Group 20">
<circle id="Ellipse 27" cx="85" cy="1" r="0.5" fill="white"/>
</g>
<g id="Group 25">
<circle id="Ellipse 23" cx="89" cy="1" r="0.5" fill="white"/>
</g>
<g id="Group 23">
<circle id="Ellipse 31" cx="93" cy="1" r="0.5" fill="white"/>
</g>
<g id="Group 24">
<circle id="Ellipse 18" cx="97" cy="1" r="0.5" fill="white"/>
</g>
<g id="Group 26">
<circle id="Ellipse 26" cx="101" cy="1" r="0.5" fill="white"/>
</g>
<g id="Group 28">
<circle id="Ellipse 22" cx="105" cy="1" r="0.5" fill="white"/>
</g>
<g id="Group 27">
<circle id="Ellipse 30" cx="109" cy="1" r="0.5" fill="white"/>
</g>
<g id="Group 31">
<circle id="Ellipse 20" cx="113" cy="1" r="0.5" fill="white"/>
</g>
<g id="Group 29">
<circle id="Ellipse 28" cx="117" cy="1" r="0.5" fill="white"/>
</g>
<g id="Group 30">
<circle id="Ellipse 24" cx="121" cy="1" r="0.5" fill="white"/>
</g>
<g id="Group 32">
<circle id="Ellipse 32" cx="125" cy="1" r="0.5" fill="white"/>
</g>
<g id="Group 34">
<circle id="Ellipse 33" cx="129" cy="1" r="0.5" fill="white"/>
</g>
<g id="Group 33">
<circle id="Ellipse 49" cx="133" cy="1" r="0.5" fill="white"/>
</g>
<g id="Group 36">
<circle id="Ellipse 41" cx="137" cy="1" r="0.5" fill="white"/>
</g>
<g id="Group 35">
<circle id="Ellipse 57" cx="141" cy="1" r="0.5" fill="white"/>
</g>
<g id="Group 37">
<circle id="Ellipse 37" cx="145" cy="1" r="0.5" fill="white"/>
</g>
<g id="Group 39">
<circle id="Ellipse 53" cx="149" cy="1" r="0.5" fill="white"/>
</g>
<g id="Group 40">
<circle id="Ellipse 45" cx="153" cy="1" r="0.5" fill="white"/>
</g>
<g id="Group 38">
<circle id="Ellipse 61" cx="157" cy="1" r="0.5" fill="white"/>
</g>
<g id="Group 41">
<circle id="Ellipse 35" cx="161" cy="1" r="0.5" fill="white"/>
</g>
<g id="Group 42">
<circle id="Ellipse 51" cx="165" cy="1" r="0.5" fill="white"/>
</g>
<g id="Group 43">
<circle id="Ellipse 43" cx="169" cy="1" r="0.5" fill="white"/>
</g>
<g id="Group 44">
<circle id="Ellipse 59" cx="173" cy="1" r="0.5" fill="white"/>
</g>
<g id="Group 46">
<circle id="Ellipse 39" cx="177" cy="1" r="0.5" fill="white"/>
</g>
<g id="Group 45">
<circle id="Ellipse 55" cx="181" cy="1" r="0.5" fill="white"/>
</g>
<g id="Group 48">
<circle id="Ellipse 47" cx="185" cy="1" r="0.5" fill="white"/>
</g>
<g id="Group 49">
<circle id="Ellipse 63" cx="189" cy="1" r="0.5" fill="white"/>
</g>
<g id="Group 47">
<circle id="Ellipse 34" cx="193" cy="1" r="0.5" fill="white"/>
</g>
<g id="Group 51">
<circle id="Ellipse 50" cx="197" cy="1" r="0.5" fill="white"/>
</g>
<g id="Group 52">
<circle id="Ellipse 42" cx="201" cy="1" r="0.5" fill="white"/>
</g>
<g id="Group 50">
<circle id="Ellipse 58" cx="205" cy="1" r="0.5" fill="white"/>
</g>
<g id="Group 55">
<circle id="Ellipse 38" cx="209" cy="1" r="0.5" fill="white"/>
</g>
<g id="Group 53">
<circle id="Ellipse 54" cx="213" cy="1" r="0.5" fill="white"/>
</g>
<g id="Group 54">
<circle id="Ellipse 46" cx="217" cy="1" r="0.5" fill="white"/>
</g>
<g id="Group 56">
<circle id="Ellipse 62" cx="221" cy="1" r="0.5" fill="white"/>
</g>
<g id="Group 57">
<circle id="Ellipse 36" cx="225" cy="1" r="0.5" fill="white"/>
</g>
<g id="Group 58">
<circle id="Ellipse 52" cx="229" cy="1" r="0.5" fill="white"/>
</g>
<g id="Group 60">
<circle id="Ellipse 44" cx="233" cy="1" r="0.5" fill="white"/>
</g>
<g id="Group 59">
<circle id="Ellipse 60" cx="237" cy="1" r="0.5" fill="white"/>
</g>
<g id="Group 61">
<circle id="Ellipse 40" cx="241" cy="1" r="0.5" fill="white"/>
</g>
<g id="Group 63">
<circle id="Ellipse 56" cx="245" cy="1" r="0.5" fill="white"/>
</g>
<g id="Group 62">
<circle id="Ellipse 48" cx="249" cy="1" r="0.5" fill="white"/>
</g>
<g id="Group 64">
<circle id="Ellipse 64" cx="253" cy="1" r="0.5" fill="white"/>
</g>
</g>
</svg>
